{"title":"Kanthari 2015 DVDRip Malayalam XviD 500MB - #gR","uid":14793170,"size":534397283,"categoryP":"video","categoryS":"movies","magnet":"?xt=urn:btih:b6db0fcdc9692ffe3b50c57eb77ae59513e0163a&amp;dn=Kanthari+2015+DVDRip+Malayalam+XviD+500MB+-+%23gR&amp;tr=udp%3A%2F%2Ftracker.leechers-paradise.org%3A6969&amp;tr=udp%3A%2F%2Fzer0day.ch%3A1337&amp;tr=udp%3A%2F%2Fopen.demonii.com%3A1337&amp;tr=udp%3A%2F%2Ftracker.coppersurfer.tk%3A6969&amp;tr=udp%3A%2F%2Fexodus.desync.com%3A6969","seeders":1,"leechers":0,"uploader":"CDRiPD","files":2,"time":1465078262,"description":"Kanthari 2015 DVDRip Malayalam XviD 500MB - #gR\r\n\r\n\r\nFormat                                   : MPEG-4\r\nFile size                                : 510 MiB\r\nDuration                                 : 1h 52mn\r\nOverall bit rate mode                    : Variable\r\nOverall bit rate                         : 632 Kbps\r\n\r\nVideo\r\nFormat                                   : AVC\r\nDuration                                 : 1h 52mn\r\nBit rate                                 : 516 Kbps\r\nWidth                                    : 900 pixels\r\nHeight                                   : 380 pixels\r\nDisplay aspect ratio                     : 2.35:1\r\nFrame rate mode                          : Constant\r\nFrame rate                               : 25.000 fps\r\nColor space                              : YUV\r\nChroma subsampling                       : 4:2:0\r\nBit depth                                : 8 bits\r\nScan type                                : Progressive\r\nBits/(Pixel*Frame)                       : 0.060\r\nStream size                              : 416 MiB (82%)\r\nWriting library                          : x264 core 142\r\n\r\nAudio\r\nFormat                                   : AAC\r\nFormat profile                           : LC\r\nCodec ID                                 : 40\r\nDuration                                 : 1h 52mn\r\nBit rate mode                            : Variable\r\nBit rate                                 : 111 Kbps\r\nChannel(s)                               : 2 channels\r\nChannel positions                        : Front: L R\r\nSampling rate                            : 44.1 KHz\r\nCompression mode                         : Lossy\r\nStream size                              : 88.5 MiB (17%)\r\nLanguage                                 : Malayalam\r\n\r\n\r\nScreen  Shots:\r\n\r\n \nhttps://ititli.com/Xve \nhttps://ititli.com/Xvj \nhttps://ititli.com/Xvk \nhttps://ititli.com/Xvo \nhttps://ititli.com/XvG \nhttps://ititli.com/XvH \nhttps://ititli.com/XvM \nhttps://ititli.com/XvU \nhttps://ititli.com/Xvh \nhttps://ititli.com/Xvs \nhttps://ititli.com/XvY \nhttps://ititli.com/Xv4","torrent":{"xt":"urn:btih:b6db0fcdc9692ffe3b50c57eb77ae59513e0163a","amp;dn":"Kanthari+2015+DVDRip+Malayalam+XviD+500MB+-+%23gR","amp;tr":["udp%3A%2F%2Ftracker.leechers-paradise.org%3A6969","udp%3A%2F%2Fzer0day.ch%3A1337","udp%3A%2F%2Fopen.demonii.com%3A1337","udp%3A%2F%2Ftracker.coppersurfer.tk%3A6969","udp%3A%2F%2Fexodus.desync.com%3A6969"],"infoHash":"b6db0fcdc9692ffe3b50c57eb77ae59513e0163a","infoHashBuffer":{"type":"Buffer","data":[182,219,15,205,201,105,47,254,59,80,197,126,183,122,229,149,19,224,22,58]},"announce":[],"urlList":[]}}